<?xml version="1.0" encoding="UTF-8"?>
<svg id="Layer_2" data-name="Layer 2" xmlns="http://www.w3.org/2000/svg" viewBox="0 0 265.76 81.31">
  <defs>
    <style>
      .cls-1 {
        fill: #fff;
      }
    </style>
  </defs>
  <g id="Front">
    <g id="John_Doe" data-name="John Doe">
      <g>
        <path class="cls-1" d="M23.38,15.44c2.57-1.7,5.64-2.55,9.21-2.55,3.99,0,7.32,1.01,9.99,3.03,2.67,2.02,4.59,4.93,5.75,8.75l13.99-4.23c-1.17-4.44-3.07-8.18-5.71-11.23-2.64-3.05-5.95-5.34-9.94-6.89-3.99-1.54-8.65-2.31-13.99-2.31-4.85,0-9.27,.8-13.25,2.4-3.99,1.6-7.44,3.9-10.36,6.89-2.92,2.99-5.16,6.56-6.72,10.72C.78,24.17,0,28.84,0,34.01c0,6.78,1.38,12.73,4.14,17.84,2.76,5.11,6.59,9.09,11.51,11.92,4.91,2.83,10.62,4.25,17.12,4.25,5.34,0,9.97-.77,13.9-2.31,3.93-1.54,7.21-3.85,9.85-6.93,2.64-3.08,4.54-6.84,5.71-11.28l-13.9-4.14c-1.17,3.75-3.07,6.65-5.71,8.7-2.64,2.05-5.95,3.07-9.94,3.07-3.56,0-6.64-.85-9.25-2.55-2.61-1.7-4.62-4.14-6.03-7.32-1.41-3.18-2.12-6.93-2.12-11.26s.71-8.15,2.12-11.3c1.41-3.15,3.41-5.58,5.99-7.27Z"/>
        <polygon class="cls-1" points="69.92 0 66.25 0 66.25 13.28 69.92 13.28 69.92 53.14 66.25 53.14 66.25 66.42 69.92 66.42 84.62 66.42 88.29 66.42 88.29 53.14 84.62 53.14 84.62 13.28 88.29 13.28 88.29 0 84.62 0 69.92 0"/>
        <path class="cls-1" d="M136.78,35.66c3.52-1.54,6.2-3.72,8.05-6.55,1.85-2.83,2.78-6.19,2.78-10.08s-.93-7.35-2.78-10.18c-1.85-2.83-4.54-5.01-8.05-6.55-3.52-1.54-7.82-2.31-12.91-2.31h-28.55V66.42h14.7v-30.82l24.22,30.82h18l-23.85-28.71c3.16-.33,5.98-1,8.4-2.06Zm-6.17-22.14c1.73,1.23,2.59,3.06,2.59,5.51s-.86,4.18-2.59,5.37c-1.73,1.19-4.16,1.79-7.3,1.79h-13.29V11.68h13.29c3.14,0,5.57,.61,7.3,1.84Z"/>
        <polygon class="cls-1" points="238.81 53.14 238.81 0 224.12 0 224.12 66.42 265.76 66.42 265.76 53.14 238.81 53.14"/>
        <path class="cls-1" d="M203.75,4.33c-5.21-2.88-11.31-4.33-18.36-4.33s-13.08,1.45-18.33,4.33c-5.25,2.91-9.32,6.95-12.2,12.17-2.88,5.21-4.33,11.35-4.33,18.36s1.45,13.08,4.33,18.3c2.88,5.21,6.95,9.26,12.2,12.14,5.25,2.91,11.35,4.33,18.33,4.33,5.91,0,11.16-1.01,15.77-3.07h0s13.81,14.76,13.81,14.76v-15.36l-4.9-5.25-10.18-10.87-15.07-16.12v15.36l6.13,6.57c-1.74,.47-3.57,.7-5.56,.7-3.82,0-7.21-.88-10.08-2.69-2.88-1.8-5.15-4.3-6.73-7.49-1.61-3.19-2.4-6.98-2.4-11.31s.79-8.12,2.4-11.35c1.58-3.22,3.86-5.75,6.73-7.55,2.88-1.77,6.26-2.69,10.08-2.69s7.3,.92,10.18,2.69c2.88,1.8,5.12,4.33,6.73,7.55,1.61,3.22,2.4,7.02,2.4,11.35,0,4.08-.7,7.65-2.12,10.71h0s11,11.19,11,11.19c.89-1.14,1.64-2.34,2.37-3.6,2.94-5.21,4.39-11.31,4.39-18.3s-1.45-13.15-4.39-18.36c-2.91-5.21-6.98-9.26-12.2-12.17Z"/>
      </g>
    </g>
  </g>
</svg>